{"asset":{"version":"2.0","generator":"Blockbench 4.9.4 glTF exporter"},"scenes":[{"nodes":[12],"name":"blockbench_export"}],"scene":0,"nodes":[{"name":"body","mesh":0},{"name":"mirror_left","mesh":1},{"name":"mirror_right","mesh":2},{"translation":[-0.5735294117647053,0.2812499999999999,-0.6875000000000011],"name":"cylinder","mesh":3},{"name":"wheel_left_front","children":[3]},{"name":"cylinder","mesh":4},{"translation":[-0.5735294117647053,0.2812499999999999,0.5624999999999989],"name":"wheel_left_rear","children":[5]},{"translation":[-2.220446049250313e-16,1.1102230246251565e-16,1.1102230246251565e-16],"name":"cylinder","mesh":5},{"translation":[0.5735294117647053,0.2812499999999999,-0.6875000000000011],"name":"wheel_right_front","children":[7]},{"translation":[-2.220446049250313e-16,1.1102230246251565e-16,1.1102230246251565e-16],"name":"cylinder","mesh":6},{"translation":[0.5735294117647053,0.2812499999999999,0.5624999999999989],"name":"wheel_right_rear","children":[9]},{"name":"root","children":[0,1,2,4,6,8,10]},{"children":[11]}],"bufferViews":[{"buffer":0,"byteOffset":0,"byteLength":3936,"target":34962,"byteStride":12},{"buffer":0,"byteOffset":3936,"byteLength":3936,"target":34962,"byteStride":12},{"buffer":0,"byteOffset":7872,"byteLength":2624,"target":34962,"byteStride":8},{"buffer":0,"byteOffset":10496,"byteLength":984,"target":34963},{"buffer":0,"byteOffset":11480,"byteLength":672,"target":34962,"byteStride":12},{"buffer":0,"byteOffset":12152,"byteLength":672,"target":34962,"byteStride":12},{"buffer":0,"byteOffset":12824,"byteLength":448,"target":34962,"byteStride":8},{"buffer":0,"byteOffset":13272,"byteLength":168,"target":34963},{"buffer":0,"byteOffset":13440,"byteLength":672,"target":34962,"byteStride":12},{"buffer":0,"byteOffset":14112,"byteLength":672,"target":34962,"byteStride":12},{"buffer":0,"byteOffset":14784,"byteLength":448,"target":34962,"byteStride":8},{"buffer":0,"byteOffset":15232,"byteLength":168,"target":34963},{"buffer":0,"byteOffset":15400,"byteLength":1728,"target":34962,"byteStride":12},{"buffer":0,"byteOffset":17128,"byteLength":1728,"target":34962,"byteStride":12},{"buffer":0,"byteOffset":18856,"byteLength":1152,"target":34962,"byteStride":8},{"buffer":0,"byteOffset":20008,"byteLength":384,"target":34963},{"buffer":0,"byteOffset":20392,"byteLength":1728,"target":34962,"byteStride":12},{"buffer":0,"byteOffset":22120,"byteLength":1728,"target":34962,"byteStride":12},{"buffer":0,"byteOffset":23848,"byteLength":1152,"target":34962,"byteStride":8},{"buffer":0,"byteOffset":25000,"byteLength":384,"target":34963},{"buffer":0,"byteOffset":25384,"byteLength":1728,"target":34962,"byteStride":12},{"buffer":0,"byteOffset":27112,"byteLength":1728,"target":34962,"byteStride":12},{"buffer":0,"byteOffset":28840,"byteLength":1152,"target":34962,"byteStride":8},{"buffer":0,"byteOffset":29992,"byteLength":384,"target":34963},{"buffer":0,"byteOffset":30376,"byteLength":1728,"target":34962,"byteStride":12},{"buffer":0,"byteOffset":32104,"byteLength":1728,"target":34962,"byteStride":12},{"buffer":0,"byteOffset":33832,"byteLength":1152,"target":34962,"byteStride":8},{"buffer":0,"byteOffset":34984,"byteLength":384,"target":34963}],"buffers":[{"byteLength":35368,"uri":"data:application/octet-stream;base64,"}],"accessors":[{"bufferView":0,"componentType":5126,"count":328,"max":[0.5625,1.375,1.125],"min":[-0.5625,0.3125,-1.25],"type":"VEC3"},{"bufferView":1,"componentType":5126,"count":328,"max":[1,1,1],"min":[-1,-1,-1],"type":"VEC3"},{"bufferView":2,"componentType":5126,"count":328,"max":[0.59375,0.59375],"min":[0,0],"type":"VEC2"},{"bufferView":3,"componentType":5123,"count":492,"max":[327],"min":[0],"type":"SCALAR"},{"bufferView":4,"componentType":5126,"count":56,"max":[-0.5562499761581421,1,-0.2562499940395355],"min":[-0.8062499761581421,0.875,-0.40625],"type":"VEC3"},{"bufferView":5,"componentType":5126,"count":56,"max":[1,1,0.9883716702461243],"min":[-0.9615239500999451,-1,-1],"type":"VEC3"},{"bufferView":6,"componentType":5126,"count":56,"max":[0.609375,0.6171875],"min":[0.003025299869477749,0],"type":"VEC2"},{"bufferView":7,"componentType":5123,"count":84,"max":[55],"min":[0],"type":"SCALAR"},{"bufferView":8,"componentType":5126,"count":56,"max":[0.8062499761581421,1,-0.2562499940395355],"min":[0.5562499761581421,0.875,-0.40625],"type":"VEC3"},{"bufferView":9,"componentType":5126,"count":56,"max":[0.9615239500999451,1,0.9883716702461243],"min":[-1,-1,-1],"type":"VEC3"},{"bufferView":10,"componentType":5126,"count":56,"max":[0.609375,0.6171875],"min":[0.0042500002309679985,0.046875],"type":"VEC2"},{"bufferView":11,"componentType":5123,"count":84,"max":[55],"min":[0],"type":"SCALAR"},{"bufferView":12,"componentType":5126,"count":144,"max":[0.1672794073820114,0.28125,0.28125],"min":[-0.08272058516740799,-0.28125,-0.28125],"type":"VEC3"},{"bufferView":13,"componentType":5126,"count":144,"max":[1,1,1],"min":[-1,-1,-1],"type":"VEC3"},{"bufferView":14,"componentType":5126,"count":144,"max":[0.5859375,0.609375],"min":[0,0],"type":"VEC2"},{"bufferView":15,"componentType":5123,"count":192,"max":[143],"min":[0],"type":"SCALAR"},{"bufferView":16,"componentType":5126,"count":144,"max":[0.1672794073820114,0.28125,0.28125],"min":[-0.08272058516740799,-0.28125,-0.28125],"type":"VEC3"},{"bufferView":17,"componentType":5126,"count":144,"max":[1,1,1],"min":[-1,-1,-1],"type":"VEC3"},{"bufferView":18,"componentType":5126,"count":144,"max":[0.5859375,0.609375],"min":[0,0],"type":"VEC2"},{"bufferView":19,"componentType":5123,"count":192,"max":[143],"min":[0],"type":"SCALAR"},{"bufferView":20,"componentType":5126,"count":144,"max":[0.08272058516740799,0.28125,0.28125],"min":[-0.1672794073820114,-0.28125,-0.28125],"type":"VEC3"},{"bufferView":21,"componentType":5126,"count":144,"max":[1,1,1],"min":[-1,-1,-1],"type":"VEC3"},{"bufferView":22,"componentType":5126,"count":144,"max":[0.609375,0.46875],"min":[0,0.0703125],"type":"VEC2"},{"bufferView":23,"componentType":5123,"count":192,"max":[143],"min":[0],"type":"SCALAR"},{"bufferView":24,"componentType":5126,"count":144,"max":[0.08272058516740799,0.28125,0.28125],"min":[-0.1672794073820114,-0.28125,-0.28125],"type":"VEC3"},{"bufferView":25,"componentType":5126,"count":144,"max":[1,1,1],"min":[-1,-1,-1],"type":"VEC3"},{"bufferView":26,"componentType":5126,"count":144,"max":[0.609375,0.46875],"min":[0,0.0703125],"type":"VEC2"},{"bufferView":27,"componentType":5123,"count":192,"max":[143],"min":[0],"type":"SCALAR"}],"materials":[{"pbrMetallicRoughness":{"metallicFactor":0,"roughnessFactor":1,"baseColorTexture":{"index":0}},"alphaMode":"MASK","alphaCutoff":0.05,"doubleSided":true}],"textures":[{"sampler":0,"source":0}],"samplers":[{"magFilter":9728,"minFilter":9728,"wrapS":33071,"wrapT":33071}],"images":[{"mimeType":"image/png","uri":"data:image/png;base64,"}],"meshes":[{"primitives":[{"mode":4,"attributes":{"POSITION":0,"NORMAL":1,"TEXCOORD_0":2},"indices":3,"material":0}]},{"primitives":[{"mode":4,"attributes":{"POSITION":4,"NORMAL":5,"TEXCOORD_0":6},"indices":7,"material":0}]},{"primitives":[{"mode":4,"attributes":{"POSITION":8,"NORMAL":9,"TEXCOORD_0":10},"indices":11,"material":0}]},{"primitives":[{"mode":4,"attributes":{"POSITION":12,"NORMAL":13,"TEXCOORD_0":14},"indices":15,"material":0}]},{"primitives":[{"mode":4,"attributes":{"POSITION":16,"NORMAL":17,"TEXCOORD_0":18},"indices":19,"material":0}]},{"primitives":[{"mode":4,"attributes":{"POSITION":20,"NORMAL":21,"TEXCOORD_0":22},"indices":23,"material":0}]},{"primitives":[{"mode":4,"attributes":{"POSITION":24,"NORMAL":25,"TEXCOORD_0":26},"indices":27,"material":0}]}]}